<?xml version="1.0" standalone="no"?>
<!DOCTYPE svg PUBLIC "-//W3C//DTD SVG 20010904//EN"
 "http://www.w3.org/TR/2001/REC-SVG-20010904/DTD/svg10.dtd">
<svg version="1.0" xmlns="http://www.w3.org/2000/svg"
 width="176.000000pt" height="176.000000pt" viewBox="0 0 176.000000 176.000000"
 preserveAspectRatio="xMidYMid meet">
<metadata>
Created by potrace 1.14, written by Peter Selinger 2001-2017
</metadata>
<g transform="translate(0.000000,176.000000) scale(0.100000,-0.100000)"
fill="#000000" stroke="none">
<path d="M0 880 l0 -880 880 0 880 0 0 880 0 880 -880 0 -880 0 0 -880z m896
783 c52 -122 173 -458 167 -463 -16 -15 -374 -61 -386 -51 -4 4 29 117 74 252
108 323 114 334 145 262z m718 -457 c53 -22 57 -75 9 -117 -25 -23 -288 -155
-413 -209 -58 -24 -187 -83 -286 -131 l-182 -88 -6 -43 c-3 -24 -9 -83 -12
-133 -4 -49 -10 -98 -13 -108 -9 -23 -346 -247 -372 -247 -17 0 -4 54 51 225
49 149 100 321 100 334 0 4 -92 76 -205 161 -153 114 -203 156 -195 165 13 16
91 31 260 50 74 8 194 24 265 35 129 19 213 31 495 71 152 21 368 45 433 48
21 0 53 -5 71 -13z m-364 -478 c24 -62 58 -147 76 -188 89 -204 154 -383 144
-395 -8 -10 -45 7 -161 74 -82 47 -209 119 -281 160 l-132 74 -62 -34 c-35
-18 -65 -31 -68 -28 -3 2 -1 47 4 99 5 52 10 108 10 123 0 27 11 34 203 127
111 54 207 99 213 99 6 1 30 -50 54 -111z"/>
<path d="M995 1008 c-108 -16 -368 -67 -373 -73 -3 -3 14 -26 39 -51 36 -37
49 -44 71 -40 73 14 388 151 388 168 0 10 -46 8 -125 -4z"/>
</g>
</svg>
